<mxfile host="app.diagrams.net" modified="2022-07-19T19:16:09.780Z" agent="5.0 (Windows NT 10.0; Win64; x64) AppleWebKit/537.36 (KHTML, like Gecko) Chrome/103.0.0.0 Safari/537.36" etag="0uLtp5UqGOyYCa-ofqzl" version="20.1.1" type="github">
  <diagram id="xYu9bZw6X5f-FNDAe_DN" name="Page-1">
    <mxGraphModel dx="1185" dy="635" grid="1" gridSize="10" guides="1" tooltips="1" connect="1" arrows="1" fold="1" page="1" pageScale="1" pageWidth="850" pageHeight="1100" math="0" shadow="0">
      <root>
        <mxCell id="0" />
        <mxCell id="1" parent="0" />
        <mxCell id="Iyr3FcFBfqyZehb2SKoS-1" value="Employee" style="swimlane;childLayout=stackLayout;horizontal=1;startSize=30;horizontalStack=0;rounded=1;fontSize=14;fontStyle=0;strokeWidth=2;resizeParent=0;resizeLast=1;shadow=0;dashed=0;align=center;" vertex="1" parent="1">
          <mxGeometry x="70" y="180" width="180" height="130" as="geometry" />
        </mxCell>
        <mxCell id="Iyr3FcFBfqyZehb2SKoS-2" value="Employee ID&#xa;Employee name&#xa;Employee address&#xa;Employee number&#xa;Employee  &#xa;Branch ID " style="align=left;strokeColor=none;fillColor=none;spacingLeft=4;fontSize=12;verticalAlign=top;resizable=0;rotatable=0;part=1;fontStyle=0" vertex="1" parent="Iyr3FcFBfqyZehb2SKoS-1">
          <mxGeometry y="30" width="180" height="100" as="geometry" />
        </mxCell>
        <mxCell id="Iyr3FcFBfqyZehb2SKoS-3" value="Branch" style="swimlane;childLayout=stackLayout;horizontal=1;startSize=30;horizontalStack=0;rounded=1;fontSize=14;fontStyle=0;strokeWidth=2;resizeParent=0;resizeLast=1;shadow=0;dashed=0;align=center;" vertex="1" parent="1">
          <mxGeometry x="340" y="260" width="160" height="120" as="geometry" />
        </mxCell>
        <mxCell id="Iyr3FcFBfqyZehb2SKoS-4" value="Branch name&#xa;Branch ID&#xa;Branch address&#xa;Branch phone" style="align=left;strokeColor=none;fillColor=none;spacingLeft=4;fontSize=12;verticalAlign=top;resizable=0;rotatable=0;part=1;" vertex="1" parent="Iyr3FcFBfqyZehb2SKoS-3">
          <mxGeometry y="30" width="160" height="90" as="geometry" />
        </mxCell>
        <mxCell id="Iyr3FcFBfqyZehb2SKoS-7" value="Customer" style="swimlane;childLayout=stackLayout;horizontal=1;startSize=30;horizontalStack=0;rounded=1;fontSize=14;fontStyle=0;strokeWidth=2;resizeParent=0;resizeLast=1;shadow=0;dashed=0;align=center;arcSize=0;" vertex="1" parent="1">
          <mxGeometry x="570" y="150" width="200" height="170" as="geometry" />
        </mxCell>
        <mxCell id="Iyr3FcFBfqyZehb2SKoS-8" value="Customer&#xa;Customer  ID&#xa;Customer address&#xa;Customer email&#xa;Account ID&#xa;Customer gender&#xa;Date of birth&#xa;Branch ID&#xa;" style="align=left;strokeColor=none;fillColor=none;spacingLeft=4;fontSize=12;verticalAlign=top;resizable=0;rotatable=0;part=1;fontStyle=0" vertex="1" parent="Iyr3FcFBfqyZehb2SKoS-7">
          <mxGeometry y="30" width="200" height="140" as="geometry" />
        </mxCell>
        <mxCell id="Iyr3FcFBfqyZehb2SKoS-11" value="" style="endArrow=classic;html=1;rounded=0;entryX=1;entryY=0.333;entryDx=0;entryDy=0;entryPerimeter=0;" edge="1" parent="1" target="Iyr3FcFBfqyZehb2SKoS-4">
          <mxGeometry width="50" height="50" relative="1" as="geometry">
            <mxPoint x="570" y="200" as="sourcePoint" />
            <mxPoint x="520" y="330" as="targetPoint" />
          </mxGeometry>
        </mxCell>
        <mxCell id="Iyr3FcFBfqyZehb2SKoS-14" style="edgeStyle=orthogonalEdgeStyle;rounded=0;orthogonalLoop=1;jettySize=auto;html=1;exitX=1;exitY=0.25;exitDx=0;exitDy=0;entryX=0;entryY=0.315;entryDx=0;entryDy=0;entryPerimeter=0;" edge="1" parent="1" source="Iyr3FcFBfqyZehb2SKoS-2" target="Iyr3FcFBfqyZehb2SKoS-4">
          <mxGeometry relative="1" as="geometry" />
        </mxCell>
        <mxCell id="Iyr3FcFBfqyZehb2SKoS-15" value="account" style="swimlane;childLayout=stackLayout;horizontal=1;startSize=30;horizontalStack=0;rounded=1;fontSize=14;fontStyle=0;strokeWidth=2;resizeParent=0;resizeLast=1;shadow=0;dashed=0;align=center;" vertex="1" parent="1">
          <mxGeometry x="1010" y="230" width="160" height="120" as="geometry" />
        </mxCell>
        <mxCell id="Iyr3FcFBfqyZehb2SKoS-16" value="+Attribute1&#xa;+Attribute2&#xa;+Attribute3" style="align=left;strokeColor=none;fillColor=none;spacingLeft=4;fontSize=12;verticalAlign=top;resizable=0;rotatable=0;part=1;" vertex="1" parent="Iyr3FcFBfqyZehb2SKoS-15">
          <mxGeometry y="30" width="160" height="90" as="geometry" />
        </mxCell>
      </root>
    </mxGraphModel>
  </diagram>
</mxfile>
